# xmcd
#
# Track frame offsets:
#	150
#	15660
#	35241
#	51660
#	66074
#	79358
#	97085
#	119017
#	135487
#	151196
#	168770
#	186027
#	202739
#
# Disc length: 2898 seconds
#
# Revision: 1
# Processed by: cddbd v1.5.2PL0 Copyright (c) Steve Scherf et al.
# Submitted via: audiograbber 1.83.01
#
DISCID=b10b500d
DTITLE=Gwen Sebastian - Once Upon A Time In The West: Act I
DYEAR=2017
DGENRE=Country
TTITLE0=Once Upon A Time In The West
TTITLE1=Blue Flame
TTITLE2=Cadillac
TTITLE3=Wing And A Feather (Feat. Ashley Monroe)
TTITLE4=Love Birds
TTITLE5=Ain't All That Bad
TTITLE6=Cry To Jackson (Feat. Blu Sanders)
TTITLE7=Losers And Lashes
TTITLE8=Quicksand
TTITLE9=Oh Cowboy (Feat. Miranda Lambert)
TTITLE10=I'm Not With The Band
TTITLE11=Drunk Or Stoned
TTITLE12=Way To Go
EXTD=
EXTT0=
EXTT1=
EXTT2=
EXTT3=
EXTT4=
EXTT5=
EXTT6=
EXTT7=
EXTT8=
EXTT9=
EXTT10=
EXTT11=
EXTT12=
PLAYORDER=
